<svg width="24" height="24" viewBox="0 0 24 24" fill="none" xmlns="http://www.w3.org/2000/svg">
<path d="M14.1127 13.052L19.3473 11.1485C19.6355 11.0437 19.8846 10.8531 20.0612 10.6024C20.2377 10.3517 20.3332 10.0529 20.3347 9.74632C20.3363 9.43969 20.2438 9.13997 20.0698 8.88751C19.8957 8.63505 19.6485 8.44199 19.3614 8.33433L4.80793 2.87678C4.53825 2.77564 4.24516 2.75427 3.96367 2.81524C3.68218 2.87621 3.4242 3.01693 3.22055 3.2206C3.01689 3.42426 2.87618 3.68225 2.81523 3.96374C2.75427 4.24524 2.77565 4.53832 2.8768 4.80799V4.80795L8.33435 19.3614C8.43988 19.6484 8.63132 19.8958 8.88257 20.07C9.13383 20.2442 9.43269 20.3366 9.73841 20.3348H9.74628C10.0534 20.3351 10.353 20.2404 10.6041 20.0636C10.8552 19.8868 11.0453 19.6366 11.1485 19.3474L13.052 14.1128L18.9693 20.03C19.11 20.1707 19.3007 20.2497 19.4997 20.2497C19.6986 20.2497 19.8894 20.1707 20.03 20.03C20.1707 19.8893 20.2497 19.6986 20.2497 19.4996C20.2497 19.3007 20.1707 19.1099 20.03 18.9693L14.1127 13.052Z" fill="url(#paint0_linear_497_3792)"/>
<defs>
<linearGradient id="paint0_linear_497_3792" x1="1.80072" y1="2.03522" x2="24.6732" y2="7.09249" gradientUnits="userSpaceOnUse">
<stop stop-color="#176FEB"/>
<stop offset="1" stop-color="#FF80FF"/>
</linearGradient>
</defs>
</svg>
