<svg width="24" height="24" viewBox="0 0 24 24" fill="none" xmlns="http://www.w3.org/2000/svg">
<path d="M12 2.25C10.0716 2.25 8.18657 2.82183 6.58319 3.89317C4.97982 4.96452 3.73013 6.48726 2.99218 8.26884C2.25422 10.0504 2.06114 12.0108 2.43735 13.9021C2.81355 15.7934 3.74215 17.5307 5.10571 18.8943C6.46928 20.2579 8.20656 21.1865 10.0979 21.5627C11.9892 21.9389 13.9496 21.7458 15.7312 21.0078C17.5127 20.2699 19.0355 19.0202 20.1068 17.4168C21.1782 15.8134 21.75 13.9284 21.75 12C21.7471 9.41504 20.7189 6.93679 18.8911 5.10894C17.0632 3.28109 14.585 2.25293 12 2.25V2.25ZM16.9078 8.07413L14.2739 13.8999C14.1967 14.0708 14.0582 14.2065 13.8859 14.2803L8.31748 16.6668C8.17971 16.7259 8.0274 16.7423 7.88021 16.714C7.73301 16.6856 7.59769 16.6138 7.49169 16.5078C7.38569 16.4019 7.31389 16.2665 7.28554 16.1193C7.25719 15.9722 7.2736 15.8198 7.33265 15.6821L9.71906 10.1136C9.79274 9.94175 9.92791 9.80365 10.0981 9.72629L15.914 7.08243C16.0528 7.0193 16.2077 7.00001 16.3578 7.02715C16.5079 7.05428 16.6462 7.12654 16.7541 7.23429C16.8621 7.34204 16.9347 7.48016 16.9621 7.63021C16.9896 7.78027 16.9706 7.93512 16.9078 8.07413Z" fill="url(#paint0_linear_497_3786)"/>
<defs>
<linearGradient id="paint0_linear_497_3786" x1="1.16074" y1="1.42125" x2="26.5695" y2="7.03934" gradientUnits="userSpaceOnUse">
<stop stop-color="#176FEB"/>
<stop offset="1" stop-color="#FF80FF"/>
</linearGradient>
</defs>
</svg>
